<svg xmlns="http://www.w3.org/2000/svg" xmlns:xlink="http://www.w3.org/1999/xlink" fill="none" version="1.1" width="100" height="100" viewBox="0 0 100 100"><defs><clipPath id="master_svg0_63_118"><rect x="0" y="0" width="100" height="100" rx="0"/></clipPath><clipPath id="master_svg1_65_65"><rect x="0" y="0" width="100" height="100" rx="0"/></clipPath></defs><g clip-path="url(#master_svg0_63_118)"><g clip-path="url(#master_svg1_65_65)"><g></g><g><path d="M19.948974609375,65.48797167968749C19.963853809375,52.2276716796875,30.709674609375,41.4818716796875,43.969974609375,41.466971679687504L43.969974609375,55.8789716796875C38.666174609375,55.8850716796875,34.368074609375,60.1831716796875,34.361974609375,65.4869716796875C34.361974609375,70.2079716796875,36.914974609375,75.2869716796875,42.520974609375,75.2869716796875C42.893974609375,75.2869716796875,51.656974609375,75.2009716796875,51.656974609375,67.74797167968751L51.656974609375,13.1209716796875L67.014974609375,13.1209716796875C67.032074609375,20.2916516796875,72.84427460937499,26.098571679687502,80.014974609375,26.1089716796875L80.001974609375,40.494971679687495C75.098274609375,40.532671679687496,70.279074609375,39.2177716796875,66.073974609375,36.6949716796875L66.067974609375,67.74797167968751C66.067974609375,82.0059716796875,53.934974609375,89.6989716796875,42.518974609375,89.6989716796875C29.652974609375,89.7019716796875,19.948976516725,79.2919716796875,19.948974609375,65.48797167968749Z" fill="#FF4040" fill-opacity="1"/></g><g><path d="M16.10595703125,61.6439775390625C16.12083813125,48.3836775390625,26.86665703125,37.6378775390625,40.12695703125,37.622977539062504L40.12695703125,52.0349775390625C34.82315703125,52.0410775390625,30.52505703125,56.3391775390625,30.51895703125,61.6429775390625C30.51895703125,66.3639775390625,33.07195703125,71.4429775390625,38.67795703125,71.4429775390625C39.05095703125,71.4429775390625,47.81395703125,71.3569775390625,47.81395703125,63.9039775390625L47.81395703125,9.2769775390625L63.17195703125,9.2769775390625C63.18905703125,16.4476575390625,69.00125703124999,22.254577539062502,76.17195703125,22.2649775390625L76.15895703125,36.650977539062495C71.25525703125,36.6885775390625,66.43605703125,35.3737775390625,62.23095703125,32.8509775390625L62.22495703125,63.9039775390625C62.22495703125,78.1619775390625,50.09195703125,85.8549775390625,38.67595703125,85.8549775390625C25.80995703125,85.8579775390625,16.1059589386,75.4479775390625,16.10595703125,61.6439775390625Z" fill="#00F5FF" fill-opacity="1"/></g><g><path d="M40.128117578125,41.7559560546875C24.618087578125,43.7239560546875,12.350087578124999,63.5059560546875,25.078087578125,81.3069560546875C36.836117578125,90.9239560546875,61.571117578125,85.3309560546875,62.256117578125,64.5239560546875L62.239117578125,32.8689560546875C66.469217578125,35.3519560546875,71.288117578125,36.654556054687504,76.193117578125,36.6409560546875L76.193117578125,25.5099560546875C73.309217578125,24.5359560546875,70.81591757812501,22.6584860546875,69.083117578125,20.1559560546875C66.54021757812501,18.4833060546875,64.65321757812501,15.9837160546875,63.741117578125,13.0799560546875L51.664117578125,13.0799560546875L51.656117578125,67.9059560546875C51.645117578124996,75.5689560546875,38.866117578125,78.2979560546875,35.622117578125,70.8609560546875C27.498087578125002,66.97695605468749,29.335087578125,52.2159560546875,40.145117578124996,52.0549560546875L40.128117578125,41.7559560546875Z" fill="#FFFFFF" fill-opacity="1"/></g></g></g></svg>