<svg xmlns="http://www.w3.org/2000/svg" xmlns:xlink="http://www.w3.org/1999/xlink" fill="none" version="1.1" width="100" height="100" viewBox="0 0 100 100"><defs><clipPath id="master_svg0_127_50"><rect x="0" y="0" width="100" height="100" rx="0"/></clipPath></defs><g clip-path="url(#master_svg0_127_50)"><g><path d="M8.3333740234375,16.6375C8.3492408234375,14.36065,10.1898740234375,12.5181595,12.4667040234375,12.5L87.5333740234375,12.5C89.8166740234375,12.5,91.6666740234375,14.35417,91.6666740234375,16.6375L91.6666740234375,83.3625C91.6508740234375,85.6393,89.8101740234375,87.4818,87.5333740234375,87.5L12.4667040234375,87.5C10.1832540234375,87.4977,8.3333735267325,85.6459,8.3333740234375,83.3625L8.3333740234375,16.6375ZM44.2583740234375,35.0625C43.7474740234375,34.721599999999995,43.0903740234375,34.6894,42.5485740234375,34.9786C42.0066740234375,35.2678,41.6678740234375,35.8316,41.6666740234375,36.4458L41.6666740234375,63.5542C41.6678740234375,64.16839999999999,42.0066740234375,64.7322,42.5485740234375,65.0214C43.0903740234375,65.3106,43.7474740234375,65.2784,44.2583740234375,64.9375L64.5875740234375,51.3875C65.5785740234375,50.728,65.5785740234375,49.272,64.5875740234375,48.6125L44.2541740234375,35.0625L44.2583740234375,35.0625Z" fill="#333333" fill-opacity="1"/></g></g></svg>